# xmcd CD database file
#
# Track frame offsets:
#	150
#	14440
#	33610
#	49367
#	67792
#	80110
#	94742
#	112687
#
# Disc length: 1753 seconds
#
# Revision: 0
# Processed by: cddbd v1.5.2PL0 Copyright (c) Steve Scherf et al.
# Submitted via: CDex 1.51
#
DISCID=6006d708
DTITLE=Marty Howard Chambers - Tearin' me up
DYEAR=2002
DGENRE=Country
TTITLE0=Never Get Lower than a Sweet Potato (Higher than a ear of Corn)
TTITLE1=Reading Between the Lies
TTITLE2=Wrapped in Misery
TTITLE3=Tearin'  Me Up
TTITLE4=Blue Night Special
TTITLE5=You are my Life
TTITLE6=You Don't Love Me Anymore
TTITLE7=You Can't Put Out a Fire (with a Match)
EXTD=YEAR: 2002
EXTT0=
EXTT1=
EXTT2=
EXTT3=
EXTT4=
EXTT5=
EXTT6=
EXTT7=
PLAYORDER=
